<svg width="118" height="42" viewBox="0 0 118 42" fill="none" xmlns="http://www.w3.org/2000/svg">
<path d="M20.8642 0C18.1243 0 15.4111 0.539726 12.8797 1.58818C10.3484 2.63675 8.04844 4.17355 6.11093 6.11093C4.17355 8.04844 2.63675 10.3484 1.58818 12.8797C0.539726 15.4111 0 18.1243 0 20.8642C0 23.604 0.539726 26.3172 1.58818 28.8486C2.63675 31.3799 4.17355 33.6799 6.11093 35.6174C8.04844 37.5548 10.3484 39.0916 12.8797 40.1401C15.4111 41.1886 18.1243 41.7283 20.8642 41.7283V31.2962C19.4942 31.2962 18.1376 31.0264 16.872 30.5021C15.6063 29.9779 14.4562 29.2095 13.4875 28.2408C12.5189 27.2721 11.7505 26.122 11.2262 24.8564C10.7019 23.5907 10.4321 22.2342 10.4321 20.8642C10.4321 19.4942 10.7019 18.1376 11.2262 16.872C11.7505 15.6063 12.5189 14.4562 13.4875 13.4875C14.4562 12.5189 15.6063 11.7505 16.872 11.2262C18.1376 10.7019 19.4942 10.4321 20.8642 10.4321V0Z" fill="#00B5DA"/>
<path d="M20.8629 27.8182C24.7039 27.8182 27.8176 24.7046 27.8176 20.8636C27.8176 17.0225 24.7039 13.9089 20.8629 13.9089C17.0219 13.9089 13.9082 17.0225 13.9082 20.8636C13.9082 24.7046 17.0219 27.8182 20.8629 27.8182Z" fill="#00B5DA"/>
<path d="M0 20.8633C0 23.6032 0.539726 26.3164 1.58818 28.8477C2.63675 31.3791 4.17355 33.679 6.11093 35.6165C8.04844 37.5539 10.3484 39.0907 12.8797 40.1393C15.4111 41.1877 18.1243 41.7275 20.8642 41.7275C23.604 41.7275 26.3172 41.1877 28.8486 40.1393C31.3799 39.0907 33.6799 37.5539 35.6174 35.6165C37.5548 33.679 39.0916 31.3791 40.1401 28.8477C41.1886 26.3164 41.7283 23.6032 41.7283 20.8633H31.2962C31.2962 22.2333 31.0264 23.5898 30.5021 24.8555C29.9779 26.1212 29.2095 27.2712 28.2408 28.2399C27.2721 29.2086 26.122 29.977 24.8564 30.5012C23.5907 31.0256 22.2342 31.2954 20.8642 31.2954C19.4942 31.2954 18.1376 31.0256 16.872 30.5012C15.6063 29.977 14.4562 29.2086 13.4875 28.2399C12.5189 27.2712 11.7505 26.1212 11.2262 24.8555C10.7019 23.5898 10.4321 22.2333 10.4321 20.8633H0Z" fill="#0F52FF"/>
<path d="M27.8177 20.8636C27.8177 19.0191 27.0849 17.2502 25.7807 15.9459C24.4764 14.6416 22.7075 13.9088 20.863 13.9088C19.0185 13.9088 17.2496 14.6416 15.9453 15.9459C14.641 17.2502 13.9082 19.0191 13.9082 20.8636H20.863H27.8177Z" fill="#0F52FF"/>
<path d="M58.3987 28.2044L53.3187 21.9844V28.2044H50.5187V14.2444H53.3187V20.5044L58.3987 14.2444H61.7787L56.0187 21.1644L61.9387 28.2044H58.3987ZM68.9004 28.3844C67.8337 28.3844 66.8737 28.1511 66.0204 27.6844C65.1671 27.2044 64.4937 26.5311 64.0004 25.6644C63.5204 24.7977 63.2804 23.7977 63.2804 22.6644C63.2804 21.5311 63.5271 20.5311 64.0204 19.6644C64.5271 18.7977 65.2137 18.1311 66.0804 17.6644C66.9471 17.1844 67.9137 16.9444 68.9804 16.9444C70.0471 16.9444 71.0137 17.1844 71.8804 17.6644C72.7471 18.1311 73.4271 18.7977 73.9204 19.6644C74.4271 20.5311 74.6804 21.5311 74.6804 22.6644C74.6804 23.7977 74.4204 24.7977 73.9004 25.6644C73.3937 26.5311 72.7004 27.2044 71.8204 27.6844C70.9537 28.1511 69.9804 28.3844 68.9004 28.3844ZM68.9004 25.9444C69.4071 25.9444 69.8804 25.8244 70.3204 25.5844C70.7737 25.3311 71.1337 24.9577 71.4004 24.4644C71.6671 23.9711 71.8004 23.3711 71.8004 22.6644C71.8004 21.6111 71.5204 20.8044 70.9604 20.2444C70.4137 19.6711 69.7404 19.3844 68.9404 19.3844C68.1404 19.3844 67.4671 19.6711 66.9204 20.2444C66.3871 20.8044 66.1204 21.6111 66.1204 22.6644C66.1204 23.7177 66.3804 24.5311 66.9004 25.1044C67.4337 25.6644 68.1004 25.9444 68.9004 25.9444ZM76.2143 22.6244C76.2143 21.5044 76.4343 20.5111 76.8743 19.6444C77.3276 18.7777 77.941 18.1111 78.7143 17.6444C79.4876 17.1777 80.3476 16.9444 81.2943 16.9444C82.0143 16.9444 82.701 17.1044 83.3543 17.4244C84.0076 17.7311 84.5276 18.1444 84.9143 18.6644V13.4044H87.7543V28.2044H84.9143V26.5644C84.5676 27.1111 84.081 27.5511 83.4543 27.8844C82.8276 28.2177 82.101 28.3844 81.2743 28.3844C80.341 28.3844 79.4876 28.1444 78.7143 27.6644C77.941 27.1844 77.3276 26.5111 76.8743 25.6444C76.4343 24.7644 76.2143 23.7577 76.2143 22.6244ZM84.9343 22.6644C84.9343 21.9844 84.801 21.4044 84.5343 20.9244C84.2676 20.4311 83.9076 20.0577 83.4543 19.8044C83.001 19.5377 82.5143 19.4044 81.9943 19.4044C81.4743 19.4044 80.9943 19.5311 80.5543 19.7844C80.1143 20.0377 79.7543 20.4111 79.4743 20.9044C79.2076 21.3844 79.0743 21.9577 79.0743 22.6244C79.0743 23.2911 79.2076 23.8777 79.4743 24.3844C79.7543 24.8777 80.1143 25.2577 80.5543 25.5244C81.0076 25.7911 81.4876 25.9244 81.9943 25.9244C82.5143 25.9244 83.001 25.7977 83.4543 25.5444C83.9076 25.2777 84.2676 24.9044 84.5343 24.4244C84.801 23.9311 84.9343 23.3444 84.9343 22.6644ZM89.969 22.6244C89.969 21.5044 90.189 20.5111 90.629 19.6444C91.0823 18.7777 91.689 18.1111 92.449 17.6444C93.2223 17.1777 94.0823 16.9444 95.029 16.9444C95.8556 16.9444 96.5756 17.1111 97.189 17.4444C97.8156 17.7777 98.3156 18.1977 98.689 18.7044V17.1244H101.509V28.2044H98.689V26.5844C98.329 27.1044 97.829 27.5377 97.189 27.8844C96.5623 28.2177 95.8356 28.3844 95.009 28.3844C94.0756 28.3844 93.2223 28.1444 92.449 27.6644C91.689 27.1844 91.0823 26.5111 90.629 25.6444C90.189 24.7644 89.969 23.7577 89.969 22.6244ZM98.689 22.6644C98.689 21.9844 98.5556 21.4044 98.289 20.9244C98.0223 20.4311 97.6623 20.0577 97.209 19.8044C96.7557 19.5377 96.269 19.4044 95.749 19.4044C95.229 19.4044 94.749 19.5311 94.309 19.7844C93.869 20.0377 93.509 20.4111 93.229 20.9044C92.9623 21.3844 92.829 21.9577 92.829 22.6244C92.829 23.2911 92.9623 23.8777 93.229 24.3844C93.509 24.8777 93.869 25.2577 94.309 25.5244C94.7623 25.7911 95.2423 25.9244 95.749 25.9244C96.269 25.9244 96.7557 25.7977 97.209 25.5444C97.6623 25.2777 98.0223 24.9044 98.289 24.4244C98.5556 23.9311 98.689 23.3444 98.689 22.6644ZM107.704 19.4244V24.7844C107.704 25.1577 107.79 25.4311 107.964 25.6044C108.15 25.7644 108.457 25.8444 108.884 25.8444H110.184V28.2044H108.424C106.064 28.2044 104.884 27.0577 104.884 24.7644V19.4244H103.564V17.1244H104.884V14.3844H107.704V17.1244H110.184V19.4244H107.704ZM113.818 15.8044C113.324 15.8044 112.911 15.6511 112.578 15.3444C112.258 15.0244 112.098 14.6311 112.098 14.1644C112.098 13.6977 112.258 13.3111 112.578 13.0044C112.911 12.6844 113.324 12.5244 113.818 12.5244C114.311 12.5244 114.718 12.6844 115.038 13.0044C115.371 13.3111 115.538 13.6977 115.538 14.1644C115.538 14.6311 115.371 15.0244 115.038 15.3444C114.718 15.6511 114.311 15.8044 113.818 15.8044ZM115.198 17.1244V28.2044H112.398V17.1244H115.198Z" fill="#0F52FF"/>
</svg>
